<svg width="376" height="272" viewBox="0 0 376 272" fill="none" xmlns="http://www.w3.org/2000/svg">
<path d="M190.41 115.83C151.614 115.83 116.365 120.494 90.2698 128.095V193.024C116.365 200.625 151.614 205.289 190.41 205.289C234.813 205.289 274.566 199.179 301.268 189.549V131.57C274.566 121.94 234.813 115.83 190.41 115.83Z" fill="#A52B00"/>
<path d="M341.26 168.585L336.713 159.164C336.736 158.807 336.755 158.449 336.755 158.089C336.755 147.409 325.649 137.566 306.964 129.685V186.494C315.682 182.816 322.755 178.712 327.813 174.294C326.325 180.28 321.233 192.391 317.173 200.907C310.501 213.089 308.085 223.692 308.395 224.217C308.593 224.548 310.869 221.037 314.225 215.347C322.036 204.217 336.838 182.969 339.796 177.556C343.147 171.42 341.26 168.585 341.26 168.585Z" fill="#A52B00"/>
<path d="M46.9606 158.712C46.9606 160.769 47.3744 162.795 48.1728 164.782L45.4493 169.63C45.4493 169.63 43.2675 172.461 47.1094 178.433C50.4982 183.698 67.4726 204.31 76.4317 215.104C80.28 220.638 82.8889 224.046 83.1174 223.717C83.4771 223.194 80.7251 212.805 73.0825 200.952C69.5165 194.586 65.2573 186.151 62.7011 179.921C69.8381 184.438 79.1757 188.536 90.2697 192.062V125.363C63.5357 133.858 46.9606 145.661 46.9606 158.712Z" fill="#A52B00"/>
<path d="M185.521 17.0064L176.633 31.8518C175.188 31.9782 173.744 32.1045 172.3 32.2309L160.749 19.4162C159.66 18.0562 157.912 17.4815 156.248 17.8696C154.584 18.2577 153.245 19.5876 152.649 21.095L146.818 37.6134C145.395 37.9805 143.972 38.3475 142.81 38.9342L129.042 28.4965C127.754 27.6389 125.786 27.326 124.384 27.9338C122.763 28.8033 121.664 30.1121 121.33 31.8392L118.493 49.3084C117.331 49.8951 116.191 50.7225 114.789 51.3303L99.6095 44.1691C98.081 43.3326 96.1554 43.5011 94.7954 44.5903C93.4143 45.4388 92.5989 47.208 92.5056 48.914L93.0801 66.5697C92.1804 67.3761 91.0612 68.4442 89.9208 69.2716L73.5709 65.366C71.8228 64.7913 70.18 65.4201 68.841 66.75C67.7217 67.8181 67.1681 69.807 67.5562 71.4708L71.4795 88.5911C70.6009 89.6382 69.7223 90.6852 68.8648 91.973L51.8258 91.2808C50.1198 91.1875 48.4981 92.057 47.6616 93.5855C46.8251 95.1139 46.5122 97.0817 47.3817 98.7035L54.35 114.587C53.4925 115.875 52.8756 117.142 52.2588 118.408L35.7764 121.306C33.8508 121.474 32.5118 122.804 31.9161 124.311C31.3413 126.06 31.5098 127.985 32.3583 129.366L42.3294 143.532C42.1097 143.794 42.1308 144.034 42.1519 144.275L14.1815 173.888C14.1815 173.888 10.1015 177.155 16.1341 185.117C21.58 191.917 49.6851 219.291 64.5335 233.758C70.7437 240.976 75.0161 245.453 75.4765 245.17C76.1354 244.385 72.549 231.116 60.2853 215.696C50.8166 201.729 38.5078 180.249 41.2067 177.829C41.2067 177.829 44.4804 173.662 51.2503 170.645C50.9885 170.425 50.9885 170.425 51.2503 170.645C51.2503 170.645 190.513 234.863 319.598 171.664C334.396 168.915 343.338 176.864 343.338 176.864C346.416 178.778 338.4 200.823 331.919 215.458C322.937 232.01 321.647 244.978 322.411 245.396C322.913 245.594 326.124 240.705 330.766 232.78C342.239 216.981 363.605 186.733 367.568 179.353C372.169 170.946 367.583 168.437 367.583 168.437L337.775 146.547C337.45 145.605 337.125 144.663 337.02 143.46L346.693 129.273C347.792 127.965 347.864 126.018 347.235 124.375C346.606 122.732 345.297 121.634 343.57 121.3L326.823 118.399C326.236 117.238 325.629 115.836 325.042 114.674L331.878 98.5532C332.715 97.0247 332.546 95.0991 331.436 93.4983C330.587 92.1173 329.059 91.2808 327.374 91.4282L310.44 91.9395C309.613 90.7992 308.545 89.6799 307.717 88.5395L311.56 71.4675C311.894 69.7405 311.485 67.8359 310.417 66.7166C309.087 65.3776 307.339 64.8029 305.675 65.191L289.298 69.2919C288.251 68.4133 287.203 67.5347 286.135 66.4154L286.545 48.9161C286.638 47.2101 285.769 45.5883 284.46 44.4901C282.91 43.4129 281.204 43.3196 279.582 44.1891L264.442 51.3349C263.175 50.7181 261.887 49.8606 260.621 49.2438L257.901 32.0182C257.732 30.0926 256.403 28.7536 254.895 28.1579C253.367 27.3214 251.441 27.4899 250.081 28.579L236.418 38.7487C235.172 38.3726 233.927 37.9965 232.44 37.6414L226.633 21.1711C226.005 19.5282 224.675 18.1893 222.948 17.8553C221.22 17.5213 219.578 18.1501 218.239 19.48L206.754 32.3697C205.529 32.2343 204.043 31.8792 202.578 31.7649L193.768 17.0125C192.898 15.3907 191.37 14.5543 189.664 14.4609C187.958 14.3677 186.357 15.4779 185.521 17.0064Z" fill="url(#paint0_linear_1_9)"/>
<path d="M143.365 209.749C142.833 209.295 142.554 209.026 142.554 209.026L188.167 205.289C150.96 156.204 121.151 195.306 117.979 199.677V209.749H143.365Z" fill="black"/>
<path d="M238.339 209.221C238.871 208.766 239.15 208.496 239.15 208.496L195.315 205.289C232.54 154.189 260.553 194.776 263.726 199.148V209.221H238.339Z" fill="black"/>
<path d="M308.396 160.488C308.396 160.488 303.437 180.326 272.398 201.19L263.761 203.242C263.761 203.242 235.629 151.938 195.783 209.741C195.783 209.741 208.182 202.558 241.444 211.365C241.444 211.365 226.138 234.795 195.355 234.025C195.355 234.025 224.856 269.511 269.833 218.292C269.833 218.292 317.375 199.907 321.223 160.488L308.396 160.488Z" fill="url(#paint1_linear_1_9)"/>
<path d="M216.026 135.058C216.026 135.058 229.941 119.821 243.857 135.058C243.857 135.058 254.792 155.375 243.857 165.532C243.857 165.532 225.965 179.755 216.026 165.532C216.026 165.532 204.098 154.358 216.026 135.058Z" fill="black"/>
<path d="M232.136 140.71C232.136 146.643 228.639 151.453 224.326 151.453C220.013 151.453 216.516 146.643 216.516 140.71C216.516 134.777 220.013 129.966 224.326 129.966C228.639 129.966 232.136 134.777 232.136 140.71Z" fill="white"/>
<path d="M153.916 130.897C153.916 130.897 177.787 120.328 184.302 143.918C184.302 143.918 191.127 171.414 164.699 172.966C164.699 172.966 131 166.476 153.916 130.897Z" fill="black"/>
<path d="M165.905 141.099C165.905 147.218 162.299 152.18 157.85 152.18C153.403 152.18 149.795 147.218 149.795 141.099C149.795 134.98 153.403 130.019 157.85 130.019C162.299 130.019 165.905 134.98 165.905 141.099Z" fill="white"/>
<path d="M118.085 221.496C161.682 277.408 182.334 232.51 182.334 232.51C157.858 229.757 140.495 213.465 140.495 213.465C169.866 209.717 186.846 209.411 186.846 209.411C147.532 157.553 115.637 204.516 115.637 204.516C107.683 201.609 99.4986 190.519 93.4561 180.27L69.0569 173.08C97.1275 220.808 118.085 221.496 118.085 221.496Z" fill="url(#paint2_linear_1_9)"/>
<defs>
<linearGradient id="paint0_linear_1_9" x1="198.363" y1="256.249" x2="177.304" y2="15.5423" gradientUnits="userSpaceOnUse">
<stop stop-color="#F74C00"/>
<stop offset="0.33" stop-color="#F74C00"/>
<stop offset="1" stop-color="#F49600"/>
</linearGradient>
<linearGradient id="paint1_linear_1_9" x1="258.289" y1="245.996" x2="258.289" y2="160.488" gradientUnits="userSpaceOnUse">
<stop stop-color="#CC3A00"/>
<stop offset="0.15" stop-color="#CC3A00"/>
<stop offset="0.74" stop-color="#F74C00"/>
<stop offset="1" stop-color="#F74C00"/>
</linearGradient>
<linearGradient id="paint2_linear_1_9" x1="127.952" y1="249.567" x2="127.952" y2="173.08" gradientUnits="userSpaceOnUse">
<stop stop-color="#CC3A00"/>
<stop offset="0.15" stop-color="#CC3A00"/>
<stop offset="0.74" stop-color="#F74C00"/>
<stop offset="1" stop-color="#F74C00"/>
</linearGradient>
</defs>
</svg>
