<svg width="300" height="300" viewBox="0 0 300 300" fill="none" xmlns="http://www.w3.org/2000/svg">
<circle cx="150" cy="150" r="150" fill="url(#paint0_linear_8_11)"/>
<path d="M255 136.919H217.541L223.315 129.095L181.927 129L161.709 157.041H201L183.646 183.255H154L190 214L262 183.255H226.37L255 136.919Z" fill="white"/>
<path d="M247 97H205L199.232 105H241.096L247 97Z" fill="white"/>
<path d="M235.561 112.5H193.824L187.5 121.271H229.088L235.561 112.5Z" fill="white"/>
<path d="M150.612 132.576C150.612 139.657 148.692 146.064 144.853 151.797C141.013 157.529 135.423 161.744 128.083 164.442L154 213H111.991L91.3254 170.68H77.4354V213H40V97H111.314C119.67 97 126.785 98.6298 132.657 101.89C138.642 105.037 143.103 109.364 146.039 114.872C149.088 120.267 150.612 126.169 150.612 132.576ZM112.499 134.093C112.499 131.058 111.483 128.529 109.45 126.506C107.418 124.483 104.933 123.471 101.997 123.471H77.4354V144.884H101.997C104.933 144.884 107.418 143.872 109.45 141.849C111.483 139.713 112.499 137.128 112.499 134.093Z" fill="white"/>
<defs>
<linearGradient id="paint0_linear_8_11" x1="150" y1="0" x2="150" y2="300" gradientUnits="userSpaceOnUse">
<stop stop-color="#F0DB4F"/>
<stop offset="0.92" stop-color="#FF5D13"/>
</linearGradient>
</defs>
</svg>
